<svg xmlns="http://www.w3.org/2000/svg" width="800" height="800" viewBox="0 0 800 800">
  <defs>
    <style>
      path {
        fill-rule: evenodd;
        fill: currentColor;
      }
    </style>
  </defs>
  <path d="M512.606,375H363.2a99.274,99.274,0,0,0-66.233,25A99.276,99.276,0,0,0,363.2,425h149.4A75.428,75.428,0,0,1,588,500.294v49.412A75.428,75.428,0,0,1,512.606,625H363.732a150.172,150.172,0,0,1-106.145-43.55,148.661,148.661,0,0,1-44.578-105.6c-0.007-1.285,0-2.539.027-3.807V327.69h0c-0.022-1.171-.036-2.342-0.029-3.539a148.664,148.664,0,0,1,44.578-105.6A150.173,150.173,0,0,1,363.732,175H512.606A75.429,75.429,0,0,1,588,250.294v49.412A75.429,75.429,0,0,1,512.606,375ZM363.732,575H512.606a25.34,25.34,0,0,0,25.327-25.294V500.294A25.34,25.34,0,0,0,512.606,475H363.2a149.711,149.711,0,0,1-100.1-38.19L263.1,472.857c-0.02.908-.027,1.8-0.022,2.715C263.392,530.394,308.547,575,363.732,575Zm174.2-324.706A25.34,25.34,0,0,0,512.606,225H363.732c-55.185,0-100.34,44.606-100.658,99.435,0,0.906,0,1.8.022,2.707q0.043,2.013.164,4.013c0.011,0.179.031,0.356,0.042,0.535,0.076,1.147.163,2.292,0.277,3.431,0.031,0.314.077,0.625,0.111,0.939,0.109,1,.222,2,0.361,2.989,0.054,0.392.125,0.78,0.185,1.17,0.138,0.908.275,1.816,0.438,2.718,0.08,0.445.177,0.885,0.263,1.328,0.164,0.841.326,1.683,0.511,2.518,0.107,0.483.23,0.961,0.344,1.442,0.188,0.788.372,1.578,0.578,2.361,0.134,0.51.285,1.014,0.428,1.522,0.209,0.746.415,1.493,0.642,2.234,0.162,0.528.34,1.052,0.511,1.577,0.231,0.712.459,1.424,0.706,2.13,0.038,0.108.08,0.213,0.118,0.32A149.592,149.592,0,0,1,363.2,325h149.4a25.34,25.34,0,0,0,25.327-25.294V250.294Z"/>
</svg>
